HIERARCHY
ROOT Hips
{
	OFFSET 0.00000 0.00000 0.00000
	CHANNELS 6 Xposition Yposition Zposition Zrotation Yrotation Xrotation 
	JOINT LHipJoint
	{
		OFFSET 0 0 0
		CHANNELS 3 Zrotation Yrotation Xrotation
		JOINT LeftHip
		{
			OFFSET 1.74857 -1.85566 0.69197
			CHANNELS 3 Zrotation Yrotation Xrotation
			JOINT LeftKnee
			{
				OFFSET 2.40003 -6.59403 0.00000
				CHANNELS 3 Zrotation Yrotation Xrotation
				JOINT LeftAnkle
				{
					OFFSET 2.82169 -7.75254 0.00000
					CHANNELS 3 Zrotation Yrotation Xrotation
					JOINT LeftToe
					{
						OFFSET 0.16466 -0.45240 2.26890
						CHANNELS 3 Zrotation Yrotation Xrotation
						End Site
						{
							OFFSET 0.00000 -0.00000 1.16486
						}
					}
				}
			}
		}
	}
	JOINT RHipJoint
	{
		OFFSET 0 0 0
		CHANNELS 3 Zrotation Yrotation Xrotation
		JOINT RightHip
		{
			OFFSET -1.64169 -1.85566 0.69197
			CHANNELS 3 Zrotation Yrotation Xrotation
			JOINT RightKnee
			{
				OFFSET -2.41814 -6.64379 0.00000
				CHANNELS 3 Zrotation Yrotation Xrotation
				JOINT RightAnkle
				{
					OFFSET -2.80588 -7.70911 0.00000
					CHANNELS 3 Zrotation Yrotation Xrotation
					JOINT RightToe
					{
						OFFSET -0.19098 -0.52472 2.25401
						CHANNELS 3 Zrotation Yrotation Xrotation
						End Site
						{
							OFFSET -0.00000 -0.00000 1.16333
						}
					}
				}
			}
		}
	}
	JOINT lowerback
	{
		OFFSET 0 0 0
		CHANNELS 3 Zrotation Yrotation Xrotation
		JOINT Chest
		{
			OFFSET -0.02828 2.14690 -0.11061
			CHANNELS 3 Zrotation Yrotation Xrotation
			JOINT Chest2
			{
				OFFSET -0.00167 2.15299 0.00759
				CHANNELS 3 Zrotation Yrotation Xrotation
				JOINT lowerneck
				{
					OFFSET 0 0 0
					CHANNELS 3 Zrotation Yrotation Xrotation
					JOINT Neck
					{
						OFFSET -0.09296 1.90118 0.07197
						CHANNELS 3 Zrotation Yrotation Xrotation
						JOINT Head
						{
							OFFSET 0.08490 1.89526 -0.24604
							CHANNELS 3 Zrotation Yrotation Xrotation
							End Site
							{
								OFFSET 0.03186 1.92109 -0.09483
							}
						}
					}
				}
				JOINT LeftCollar
				{
					OFFSET 0 0 0
					CHANNELS 3 Zrotation Yrotation Xrotation
					JOINT LeftShoulder
					{
						OFFSET 3.21569 1.44644 -0.03720
CHANNELS 3 Zrotation Xrotation Yrotation
						JOINT LeftElbow
						{
OFFSET 0 -5.476510 -0.000000
CHANNELS 3 Zrotation Xrotation Yrotation
							JOINT LeftWrist
							{
OFFSET 0 -3.090580 -0.000000
CHANNELS 3 Zrotation Xrotation Yrotation
								JOINT lhand
								{
									OFFSET 0 0 0
CHANNELS 3 Zrotation Xrotation Yrotation
									JOINT LFingers
									{
OFFSET 0 -0.771610 -0.000000
CHANNELS 3 Zrotation Xrotation Yrotation
										End Site
										{
OFFSET 0 -0.622090 -0.000000
										}
									}
								}
								JOINT LThumb
								{
OFFSET 0 0.000000 0.000000
CHANNELS 3 Zrotation Xrotation Yrotation
									End Site
									{
OFFSET 0 -0.631590 0.631590
									}
								}
							}
						}
					}
				}
				JOINT RightCollar
				{
					OFFSET 0 0 0
					CHANNELS 3 Zrotation Yrotation Xrotation
					JOINT RightShoulder
					{
						OFFSET -3.38693 1.28904 -0.07093
CHANNELS 3 Zrotation Xrotation Yrotation
						JOINT RightElbow
						{
OFFSET 0 -5.141820 -0.000000
CHANNELS 3 Zrotation Xrotation Yrotation
							JOINT RightWrist
							{
OFFSET 0 -3.355650 -0.000000
CHANNELS 3 Zrotation Xrotation Yrotation
								JOINT rhand
								{
									OFFSET 0 0 0
CHANNELS 3 Zrotation Xrotation Yrotation
									JOINT RFingers
									{
OFFSET 0 -0.801040 -0.000000
CHANNELS 3 Zrotation Xrotation Yrotation
										End Site
										{
OFFSET 0 -0.645820 -0.000000
										}
									}
								}
								JOINT RThumb
								{
OFFSET 0 0.000000 0.000000
CHANNELS 3 Zrotation Xrotation Yrotation
									End Site
									{
OFFSET 0 -0.655680 0.655680
									}
								}
							}
						}
					}
				}
			}
		}
	}
}
MOTION
Frames: 6
Frame Time: 0.008333333333333333
-0.193800 18.044000 -0.798300 3.063600 -2.703400 2.830500 0.000000 0.000000 0.000000 -22.533300 -3.644500 0.998700 0.511400 4.583600 12.724700 0.694800 6.656400 -19.548500 0.596700 -4.945200 -13.752400 0.000000 0.000000 0.000000 15.549100 6.199100 -4.361400 -1.379500 -7.432200 21.002200 -0.731400 -9.015800 -21.841500 -0.366400 3.888400 -10.763000 -2.926600 1.804200 2.432000 -1.294300 2.316600 0.493700 0.237100 1.163500 -0.918600 -7.357600 -3.665800 0.190100 4.696500 -5.115000 9.958300 2.714600 -2.647900 3.589900 -0.000000 0.000000 0.000000 48.581600 11.884900 -91.104000 99.084900 -59.685800 67.859500 6.355100 3.043400 -3.665100 0.000000 0.000000 0.000000 -7.125000 0.000000 0.000000 -16.410400 33.318800 -4.871000 -0.000000 0.000000 0.000000 -42.658800 12.493100 89.768200 -81.394200 -59.718300 -52.554200 0.274100 -8.860100 -30.380100 0.000000 0.000000 0.000000 7.125000 0.000000 -0.000000 17.937300 0.850900 18.609600
-0.181503 18.045789 -0.794966 3.055363 -2.612078 2.972692 0.000000 0.000000 0.000000 -22.588884 -3.931427 0.842444 0.523169 4.635397 12.871550 0.691252 6.781916 -19.609183 0.604632 -4.977405 -13.844157 0.000000 0.000000 0.000000 15.501290 6.263760 -4.468092 -1.373765 -7.417379 20.958061 -0.724114 -9.065585 -21.817641 -0.361424 3.861985 -10.688708 -2.890551 1.759923 2.306140 -1.280527 2.262220 0.428457 0.235918 1.136814 -0.912752 -7.253125 -3.650896 0.211247 4.595256 -5.089568 9.919579 2.661041 -2.634587 3.561815 0.000000 0.000000 0.000000 48.463040 11.938791 -91.085364 98.945929 -59.695442 67.739436 6.471837 3.149628 -3.984448 0.000000 0.000000 0.000000 -7.125000 0.000000 0.000000 -16.380009 33.631996 -4.731819 0.000000 0.000000 0.000000 -42.648520 12.523122 89.823102 -81.323073 -59.713606 -52.492762 -0.200626 -9.163722 -30.256071 0.000000 0.000000 0.000000 7.125000 0.000000 0.000000 17.674870 0.935096 18.281005
-0.172957 18.044212 -0.790117 3.071711 -2.549801 2.900893 0.000000 0.000000 0.000000 -22.616327 -3.839782 0.965287 0.515846 4.603529 12.781095 0.708819 6.530896 -19.595280 0.531246 -4.670600 -12.971428 0.000000 0.000000 0.000000 15.481347 6.201017 -4.356129 -1.373163 -7.415780 20.953131 -0.724016 -9.125036 -21.868689 -0.353960 3.822032 -10.576561 -2.970395 1.744628 2.296743 -1.204858 2.242798 0.498174 0.360195 1.126028 -0.841600 -7.345951 -3.650869 0.071696 4.570948 -5.074767 9.912067 2.668591 -2.629768 3.587678 0.000000 0.000000 0.000000 48.235190 11.932687 -90.922639 98.906396 -59.698121 67.705348 6.261452 3.358552 -4.219292 0.000000 0.000000 0.000000 -7.125000 0.000000 0.000000 -16.593084 33.849070 -4.706897 0.000000 0.000000 0.000000 -42.742722 12.475457 89.814045 -81.304942 -59.712372 -52.477160 -0.062870 -9.065399 -30.179924 0.000000 0.000000 0.000000 7.125000 0.000000 0.000000 17.751679 1.017602 18.341969
-0.164270 18.042957 -0.786078 3.140629 -2.612873 2.880000 0.000000 0.000000 0.000000 -22.722464 -3.704861 1.028792 0.506813 4.563363 12.667324 0.699031 6.629678 -19.570943 0.590314 -4.918782 -13.677184 0.000000 0.000000 0.000000 15.368479 6.242007 -4.331909 -1.377116 -7.426071 20.983883 -0.739074 -9.020509 -21.916644 -0.349860 3.800383 -10.515659 -2.999445 1.804435 2.289786 -1.249003 2.321714 0.502850 0.328935 1.165394 -0.834513 -7.285862 -3.679109 0.032060 4.582887 -5.112661 9.901467 2.659488 -2.645329 3.592198 0.000000 0.000000 0.000000 48.310213 11.848525 -90.861989 98.880511 -59.699902 67.682946 6.042934 3.375753 -4.110702 0.000000 0.000000 0.000000 -7.125000 0.000000 0.000000 -16.744584 33.734531 -4.801764 0.000000 0.000000 0.000000 -42.646560 12.602999 89.701718 -81.349573 -59.715380 -52.515713 -0.075329 -9.024006 -30.122699 0.000000 0.000000 0.000000 7.125000 0.000000 0.000000 17.745034 1.071190 18.316912
-0.148970 18.043751 -0.775072 3.219890 -2.601805 2.735107 0.000000 0.000000 0.000000 -22.899667 -3.670448 1.464098 0.476215 4.425669 12.277482 0.686551 6.650423 -19.459874 0.552117 -4.759791 -13.224736 0.000000 0.000000 0.000000 15.242332 6.171358 -4.152367 -1.378221 -7.428962 20.992494 -0.737096 -9.077685 -21.947885 -0.363860 3.874581 -10.724093 -2.938450 1.805309 2.368133 -1.310930 2.322372 0.565429 0.230273 1.164757 -0.809202 -7.150830 -3.659108 -0.266180 4.552722 -5.072302 10.102599 2.622259 -2.619491 3.710456 0.000000 0.000000 0.000000 48.232172 11.872273 -90.694450 98.701644 -59.711913 67.528552 5.982966 3.474654 -4.197931 0.000000 0.000000 0.000000 -7.125000 0.000000 0.000000 -16.809585 33.815782 -4.787187 0.000000 0.000000 0.000000 -42.514266 12.589119 89.602071 -81.319559 -59.713313 -52.489733 -0.154815 -9.104903 -30.171972 0.000000 0.000000 0.000000 7.125000 0.000000 0.000000 17.700666 1.018518 18.283310
-0.138744 18.045228 -0.771115 3.303415 -2.670526 2.885866 0.000000 0.000000 0.000000 -23.036110 -3.753096 1.377415 0.469555 4.394949 12.190435 0.675488 6.889322 -19.531990 0.564423 -4.811724 -13.372208 0.000000 0.000000 0.000000 15.101362 6.364889 -4.266813 -1.378388 -7.429349 20.993762 -0.734144 -9.147287 -21.981339 -0.374380 3.930074 -10.880014 -2.995845 1.820195 2.236354 -1.318005 2.344074 0.482417 0.257101 1.176487 -0.823202 -7.138517 -3.659890 -0.237567 4.570120 -5.076828 10.075456 2.626090 -2.620793 3.695818 0.000000 0.000000 0.000000 48.269107 12.013318 -90.583607 98.901652 -59.698482 67.701231 5.802810 3.327640 -4.237312 0.000000 0.000000 0.000000 -7.125000 0.000000 0.000000 -16.960125 33.845299 -4.820763 0.000000 0.000000 0.000000 -42.504421 12.642624 89.587217 -81.373253 -59.716943 -52.536068 0.216012 -8.974276 -30.322969 0.000000 0.000000 0.000000 7.125000 0.000000 0.000000 17.905513 0.901115 18.556575
